<svg width="39" height="39" viewBox="0 0 39 39" fill="none" xmlns="http://www.w3.org/2000/svg">
<path d="M35.75 29.2578C35.75 30.1509 35.0259 30.875 34.1328 30.875H21.1172C20.2241 30.875 19.5 30.1509 19.5 29.2578C19.5 28.3647 20.2241 27.6406 21.1172 27.6406H34.1328C35.0259 27.6406 35.75 28.3647 35.75 29.2578Z" fill="#141414"/>
<path d="M35.75 19.5003C35.75 20.3936 35.0259 21.1175 34.1328 21.1175H4.86718C3.97403 21.1175 3.25 20.3936 3.25 19.5003C3.25 18.6072 3.97403 17.8833 4.86718 17.8833H34.1328C35.0259 17.8833 35.75 18.6072 35.75 19.5003Z" fill="#141414"/>
<path d="M34.1328 11.3594C35.0259 11.3594 35.75 10.6353 35.75 9.74218C35.75 8.84904 35.0259 8.125 34.1328 8.125H14.6172C13.724 8.125 13 8.84904 13 9.74218C13 10.6353 13.724 11.3594 14.6172 11.3594H34.1328Z" fill="#141414"/>
</svg>
