<svg width="244" height="184" viewBox="0 0 244 184" fill="none" xmlns="http://www.w3.org/2000/svg">
<path d="M54.76 69.784C55.592 69.784 56.232 70.2 56.68 71.032C57.192 71.8 57.448 72.792 57.448 74.008C57.448 75.48 57.224 76.632 56.776 77.464C56.328 78.296 55.624 79.032 54.664 79.672L36.232 92.056C33.8 105.304 30.6 115.704 26.632 123.256C22.728 130.872 17.736 134.68 11.656 134.68C8.392 134.68 5.736 133.656 3.688 131.608C1.64 129.624 0.616 127 0.616 123.736C0.616 120.728 1.288 117.656 2.632 114.52C4.04 111.384 6.6 107.768 10.312 103.672C14.088 99.64 19.4 95 26.248 89.752L26.536 87.544C26.984 85.176 27.496 81.784 28.072 77.368C26.792 81.976 25 85.496 22.696 87.928C20.392 90.296 17.96 91.48 15.4 91.48C12.52 91.48 10.152 90.168 8.296 87.544C6.504 84.856 5.608 81.528 5.608 77.56C5.608 72.76 5.928 68.376 6.568 64.408C7.208 60.376 8.264 56.12 9.736 51.64C10.376 49.72 11.272 48.344 12.424 47.512C13.576 46.68 15.4 46.264 17.896 46.264C19.304 46.264 20.264 46.488 20.776 46.936C21.352 47.384 21.64 48.056 21.64 48.952C21.64 49.464 21.288 51.192 20.584 54.136C19.944 56.504 19.432 58.648 19.048 60.568C18.536 63.192 18.088 65.72 17.704 68.152C17.32 70.52 17.128 72.472 17.128 74.008C17.128 76.44 17.8 77.656 19.144 77.656C20.104 77.656 21.288 76.696 22.696 74.776C24.168 72.856 25.704 69.944 27.304 66.04C28.968 62.136 30.568 57.336 32.104 51.64C32.616 49.72 33.384 48.344 34.408 47.512C35.496 46.68 37.096 46.264 39.208 46.264C40.68 46.264 41.704 46.456 42.28 46.84C42.856 47.224 43.144 47.864 43.144 48.76C43.144 50.36 42.312 55.864 40.648 65.272L38.152 80.728C43.08 77.016 47.88 73.624 52.552 70.552C53.384 70.04 54.12 69.784 54.76 69.784ZM12.712 125.368C14.312 125.368 16.104 123.512 18.088 119.8C20.072 116.088 22.056 109.912 24.04 101.272C19.112 105.432 15.528 109.208 13.288 112.6C11.112 116.056 10.024 119.064 10.024 121.624C10.024 122.712 10.216 123.608 10.6 124.312C11.048 125.016 11.752 125.368 12.712 125.368ZM62.416 91.48C58.448 91.48 55.28 90.04 52.912 87.16C50.544 84.28 49.36 80.504 49.36 75.832C49.36 70.712 50.544 65.88 52.912 61.336C55.28 56.728 58.416 53.048 62.32 50.296C66.288 47.48 70.48 46.072 74.896 46.072C76.304 46.072 77.232 46.36 77.68 46.936C78.192 47.448 78.608 48.408 78.928 49.816C80.272 49.56 81.68 49.432 83.152 49.432C86.288 49.432 87.856 50.552 87.856 52.792C87.856 54.136 87.376 57.336 86.416 62.392C84.944 69.752 84.208 74.872 84.208 77.752C84.208 78.712 84.432 79.48 84.88 80.056C85.392 80.632 86.032 80.92 86.8 80.92C88.016 80.92 89.488 80.152 91.216 78.616C92.944 77.016 95.28 74.456 98.224 70.936C98.992 70.04 99.856 69.592 100.816 69.592C101.648 69.592 102.288 69.976 102.736 70.744C103.248 71.512 103.504 72.568 103.504 73.912C103.504 76.472 102.896 78.456 101.68 79.864C99.056 83.128 96.272 85.88 93.328 88.12C90.384 90.36 87.536 91.48 84.784 91.48C82.672 91.48 80.72 90.776 78.928 89.368C77.2 87.896 75.888 85.912 74.992 83.416C71.664 88.792 67.472 91.48 62.416 91.48ZM65.872 81.784C67.28 81.784 68.624 80.952 69.904 79.288C71.184 77.624 72.112 75.416 72.688 72.664L76.24 55C73.552 55.064 71.056 56.088 68.752 58.072C66.512 59.992 64.72 62.552 63.376 65.752C62.032 68.952 61.36 72.344 61.36 75.928C61.36 77.912 61.744 79.384 62.512 80.344C63.344 81.304 64.464 81.784 65.872 81.784ZM102.518 91.48C100.086 91.48 98.3578 90.2 97.3338 87.64C96.3738 85.08 95.8938 80.984 95.8938 75.352C95.8938 67.032 97.0778 59.128 99.4458 51.64C100.022 49.784 100.95 48.44 102.23 47.608C103.574 46.712 105.43 46.264 107.798 46.264C109.078 46.264 109.974 46.424 110.486 46.744C110.998 47.064 111.254 47.672 111.254 48.568C111.254 49.592 110.774 51.896 109.814 55.48C109.174 58.04 108.662 60.28 108.278 62.2C107.894 64.12 107.574 66.488 107.318 69.304C109.43 63.8 111.798 59.32 114.422 55.864C117.046 52.408 119.606 49.944 122.102 48.472C124.662 47 126.998 46.264 129.11 46.264C133.27 46.264 135.35 48.344 135.35 52.504C135.35 53.336 135.062 55.352 134.486 58.552C133.974 61.112 133.718 62.712 133.718 63.352C133.718 65.592 134.518 66.712 136.118 66.712C137.91 66.712 140.214 65.304 143.03 62.488C143.862 61.656 144.726 61.24 145.622 61.24C146.454 61.24 147.094 61.624 147.542 62.392C148.054 63.096 148.31 64.056 148.31 65.272C148.31 67.64 147.67 69.496 146.39 70.84C144.598 72.696 142.486 74.296 140.054 75.64C137.686 76.92 135.158 77.56 132.47 77.56C129.078 77.56 126.486 76.696 124.694 74.968C122.966 73.24 122.102 70.904 122.102 67.96C122.102 67 122.198 66.04 122.39 65.08C122.518 63.8 122.582 62.936 122.582 62.488C122.582 61.464 122.23 60.952 121.526 60.952C120.566 60.952 119.286 62.04 117.686 64.216C116.15 66.328 114.614 69.144 113.078 72.664C111.542 76.184 110.294 79.896 109.334 83.8C108.63 86.808 107.798 88.856 106.838 89.944C105.942 90.968 104.502 91.48 102.518 91.48ZM158.397 91.48C151.997 91.48 147.325 89.016 144.381 84.088C141.501 79.16 140.061 72.024 140.061 62.68C140.061 54.424 141.085 45.464 143.133 35.8C145.181 26.072 148.157 17.816 152.061 11.032C156.029 4.18399 160.733 0.759995 166.173 0.759995C169.117 0.759995 171.485 2.04 173.277 4.6C175.069 7.09599 175.965 10.36 175.965 14.392C175.965 19.64 174.973 24.856 172.989 30.04C171.005 35.224 167.709 40.664 163.101 46.36C166.237 46.616 168.957 47.672 171.261 49.528C173.629 51.384 175.421 53.784 176.637 56.728C177.917 59.672 178.557 62.872 178.557 66.328C178.557 71.128 177.597 75.448 175.677 79.288C173.821 83.128 171.357 86.136 168.285 88.312C165.213 90.424 161.917 91.48 158.397 91.48ZM152.733 52.888C156.957 45.144 160.317 38.328 162.813 32.44C165.373 26.488 166.653 21.208 166.653 16.6C166.653 14.552 166.397 12.984 165.885 11.896C165.437 10.808 164.797 10.264 163.965 10.264C162.685 10.264 161.277 12.184 159.741 16.024C158.269 19.8 156.893 24.952 155.613 31.48C154.333 38.008 153.373 45.144 152.733 52.888ZM158.781 81.112C160.957 81.112 162.781 79.928 164.253 77.56C165.789 75.192 166.557 71.736 166.557 67.192C166.557 63.672 165.917 61.016 164.637 59.224C163.357 57.432 161.821 56.536 160.029 56.536C157.789 56.536 155.901 57.688 154.365 59.992C152.829 62.296 152.061 65.656 152.061 70.072C152.061 73.912 152.701 76.728 153.981 78.52C155.261 80.248 156.861 81.112 158.781 81.112ZM215.346 80.536C216.754 80.472 217.81 80.984 218.514 82.072C219.282 83.096 219.666 84.376 219.666 85.912C219.666 87.512 219.282 88.92 218.514 90.136C217.81 91.352 216.818 91.96 215.538 91.96C213.234 91.96 211.058 91.928 209.01 91.864C207.026 91.8 205.266 91.736 203.73 91.672C197.842 91.416 193.682 91.288 191.25 91.288C190.418 91.288 189.202 91.576 187.602 92.152C185.554 92.792 184.146 93.112 183.378 93.112C179.986 93.112 178.29 90.936 178.29 86.584C178.29 83.64 179.346 80.312 181.458 76.6C183.57 72.824 186.322 69.176 189.714 65.656C193.106 62.136 196.626 59.192 200.274 56.824L186.738 57.208C185.33 57.272 184.242 56.792 183.474 55.768C182.77 54.68 182.418 53.4 182.418 51.928C182.418 50.392 182.77 49.048 183.474 47.896C184.242 46.68 185.266 46.072 186.546 46.072C189.362 46.072 192.85 46.296 197.01 46.744C197.714 46.808 199.218 46.936 201.522 47.128C203.89 47.32 206.066 47.416 208.05 47.416C208.69 47.416 209.906 47.16 211.698 46.648C212.018 46.584 212.626 46.424 213.522 46.168C214.482 45.912 215.282 45.784 215.922 45.784C216.946 45.784 217.778 46.232 218.418 47.128C219.122 48.024 219.474 49.4 219.474 51.256C219.474 53.304 218.962 54.936 217.938 56.152C216.978 57.368 215.506 58.456 213.522 59.416C211.282 60.44 208.658 62.2 205.65 64.696C202.642 67.192 199.794 69.976 197.106 73.048C194.418 76.056 192.434 78.904 191.154 81.592L215.346 80.536Z" fill="#FCA311"/>
<path d="M69.782 137.934C69.782 134.91 70.376 132.228 71.564 129.888C72.788 127.548 74.444 125.748 76.532 124.488C78.62 123.228 80.942 122.598 83.498 122.598C85.442 122.598 87.296 123.03 89.06 123.894C90.824 124.722 92.228 125.838 93.272 127.242V113.04H100.94V153H93.272V148.572C92.336 150.048 91.022 151.236 89.33 152.136C87.638 153.036 85.676 153.486 83.444 153.486C80.924 153.486 78.62 152.838 76.532 151.542C74.444 150.246 72.788 148.428 71.564 146.088C70.376 143.712 69.782 140.994 69.782 137.934ZM93.326 138.042C93.326 136.206 92.966 134.64 92.246 133.344C91.526 132.012 90.554 131.004 89.33 130.32C88.106 129.6 86.792 129.24 85.388 129.24C83.984 129.24 82.688 129.582 81.5 130.266C80.312 130.95 79.34 131.958 78.584 133.29C77.864 134.586 77.504 136.134 77.504 137.934C77.504 139.734 77.864 141.318 78.584 142.686C79.34 144.018 80.312 145.044 81.5 145.764C82.724 146.484 84.02 146.844 85.388 146.844C86.792 146.844 88.106 146.502 89.33 145.818C90.554 145.098 91.526 144.09 92.246 142.794C92.966 141.462 93.326 139.878 93.326 138.042ZM112.158 119.52C110.826 119.52 109.71 119.106 108.81 118.278C107.946 117.414 107.514 116.352 107.514 115.092C107.514 113.832 107.946 112.788 108.81 111.96C109.71 111.096 110.826 110.664 112.158 110.664C113.49 110.664 114.588 111.096 115.452 111.96C116.352 112.788 116.802 113.832 116.802 115.092C116.802 116.352 116.352 117.414 115.452 118.278C114.588 119.106 113.49 119.52 112.158 119.52ZM115.884 123.084V153H108.324V123.084H115.884ZM135.071 122.598C137.303 122.598 139.265 123.048 140.957 123.948C142.649 124.812 143.981 125.946 144.953 127.35V123.084H152.567V153.216C152.567 155.988 152.009 158.454 150.893 160.614C149.777 162.81 148.103 164.538 145.871 165.798C143.639 167.094 140.939 167.742 137.771 167.742C133.523 167.742 130.031 166.752 127.295 164.772C124.595 162.792 123.065 160.092 122.705 156.672H130.211C130.607 158.04 131.453 159.12 132.749 159.912C134.081 160.74 135.683 161.154 137.555 161.154C139.751 161.154 141.533 160.488 142.901 159.156C144.269 157.86 144.953 155.88 144.953 153.216V148.572C143.981 149.976 142.631 151.146 140.903 152.082C139.211 153.018 137.267 153.486 135.071 153.486C132.551 153.486 130.247 152.838 128.159 151.542C126.071 150.246 124.415 148.428 123.191 146.088C122.003 143.712 121.409 140.994 121.409 137.934C121.409 134.91 122.003 132.228 123.191 129.888C124.415 127.548 126.053 125.748 128.105 124.488C130.193 123.228 132.515 122.598 135.071 122.598ZM144.953 138.042C144.953 136.206 144.593 134.64 143.873 133.344C143.153 132.012 142.181 131.004 140.957 130.32C139.733 129.6 138.419 129.24 137.015 129.24C135.611 129.24 134.315 129.582 133.127 130.266C131.939 130.95 130.967 131.958 130.211 133.29C129.491 134.586 129.131 136.134 129.131 137.934C129.131 139.734 129.491 141.318 130.211 142.686C130.967 144.018 131.939 145.044 133.127 145.764C134.351 146.484 135.647 146.844 137.015 146.844C138.419 146.844 139.733 146.502 140.957 145.818C142.181 145.098 143.153 144.09 143.873 142.794C144.593 141.462 144.953 139.878 144.953 138.042ZM163.785 119.52C162.453 119.52 161.337 119.106 160.437 118.278C159.573 117.414 159.141 116.352 159.141 115.092C159.141 113.832 159.573 112.788 160.437 111.96C161.337 111.096 162.453 110.664 163.785 110.664C165.117 110.664 166.215 111.096 167.079 111.96C167.979 112.788 168.429 113.832 168.429 115.092C168.429 116.352 167.979 117.414 167.079 118.278C166.215 119.106 165.117 119.52 163.785 119.52ZM167.511 123.084V153H159.951V123.084H167.511ZM183.782 129.294V143.766C183.782 144.774 184.016 145.512 184.484 145.98C184.988 146.412 185.816 146.628 186.968 146.628H190.478V153H185.726C179.354 153 176.168 149.904 176.168 143.712V129.294H172.604V123.084H176.168V115.686H183.782V123.084H190.478V129.294H183.782ZM193.971 137.934C193.971 134.91 194.565 132.228 195.753 129.888C196.977 127.548 198.615 125.748 200.667 124.488C202.755 123.228 205.077 122.598 207.633 122.598C209.865 122.598 211.809 123.048 213.465 123.948C215.157 124.848 216.507 125.982 217.515 127.35V123.084H225.129V153H217.515V148.626C216.543 150.03 215.193 151.2 213.465 152.136C211.773 153.036 209.811 153.486 207.579 153.486C205.059 153.486 202.755 152.838 200.667 151.542C198.615 150.246 196.977 148.428 195.753 146.088C194.565 143.712 193.971 140.994 193.971 137.934ZM217.515 138.042C217.515 136.206 217.155 134.64 216.435 133.344C215.715 132.012 214.743 131.004 213.519 130.32C212.295 129.6 210.981 129.24 209.577 129.24C208.173 129.24 206.877 129.582 205.689 130.266C204.501 130.95 203.529 131.958 202.773 133.29C202.053 134.586 201.693 136.134 201.693 137.934C201.693 139.734 202.053 141.318 202.773 142.686C203.529 144.018 204.501 145.044 205.689 145.764C206.913 146.484 208.209 146.844 209.577 146.844C210.981 146.844 212.295 146.502 213.519 145.818C214.743 145.098 215.715 144.09 216.435 142.794C217.155 141.462 217.515 139.878 217.515 138.042ZM240.073 113.04V153H232.513V113.04H240.073Z" fill="#FAFAFA"/>
</svg>
