<svg width="129" height="92" viewBox="0 0 129 92" fill="none" xmlns="http://www.w3.org/2000/svg">
<path d="M29.3179 34.8919C29.7562 34.8919 30.0933 35.0999 30.3293 35.5159C30.599 35.8999 30.7338 36.3959 30.7338 37.0039C30.7338 37.7399 30.6158 38.3159 30.3798 38.7319C30.1438 39.1479 29.773 39.5159 29.2673 39.8359L19.5583 46.0279C18.2772 52.6519 16.5916 57.8519 14.5015 61.6279C12.4451 65.4359 9.81555 67.3399 6.61292 67.3399C4.89361 67.3399 3.49456 66.8279 2.41578 65.8039C1.337 64.8119 0.797607 63.4999 0.797607 61.8679C0.797607 60.3639 1.15158 58.8279 1.85953 57.2599C2.6012 55.6919 3.94967 53.8839 5.90497 51.8359C7.89397 49.8199 10.6921 47.4999 14.2992 44.8759L14.4509 43.7719C14.6869 42.5879 14.9566 40.8919 15.26 38.6839C14.5858 40.9879 13.6419 42.7479 12.4282 43.9639C11.2146 45.1479 9.93354 45.7399 8.58506 45.7399C7.06803 45.7399 5.82069 45.0839 4.84304 43.7719C3.89911 42.4279 3.42714 40.7639 3.42714 38.7799C3.42714 36.3799 3.5957 34.1879 3.93282 32.2039C4.26994 30.1879 4.82618 28.0599 5.60156 25.8199C5.93868 24.8599 6.41064 24.1719 7.01746 23.7559C7.62427 23.3399 8.58507 23.1319 9.89983 23.1319C10.6415 23.1319 11.1472 23.2439 11.4169 23.4679C11.7203 23.6919 11.872 24.0279 11.872 24.4759C11.872 24.7319 11.6866 25.5959 11.3157 27.0679C10.9786 28.2519 10.7089 29.3239 10.5066 30.2839C10.2369 31.5959 10.001 32.8599 9.79869 34.0759C9.59642 35.2599 9.49529 36.2359 9.49529 37.0039C9.49529 38.2199 9.84926 38.8279 10.5572 38.8279C11.0629 38.8279 11.6866 38.3479 12.4282 37.3879C13.2036 36.4279 14.0127 34.9719 14.8555 33.0199C15.732 31.0679 16.5748 28.6679 17.3839 25.8199C17.6536 24.8599 18.0581 24.1719 18.5975 23.7559C19.1706 23.3399 20.0134 23.1319 21.1259 23.1319C21.9013 23.1319 22.4407 23.2279 22.7441 23.4199C23.0475 23.6119 23.1992 23.9319 23.1992 24.3799C23.1992 25.1799 22.7609 27.9319 21.8844 32.6359L20.5697 40.3639C23.1655 38.5079 25.6939 36.8119 28.1548 35.2759C28.5931 35.0199 28.9808 34.8919 29.3179 34.8919ZM7.16916 62.6839C8.01196 62.6839 8.9559 61.7559 10.001 59.8999C11.046 58.0439 12.0911 54.9559 13.1362 50.6359C10.5404 52.7159 8.65249 54.6039 7.47257 56.2999C6.32636 58.0279 5.75326 59.5319 5.75326 60.8119C5.75326 61.3559 5.8544 61.8039 6.05667 62.1559C6.29265 62.5079 6.66348 62.6839 7.16916 62.6839Z" fill="#FC9E11"/>
<path d="M33.3507 45.7399C31.2606 45.7399 29.5918 45.0199 28.3445 43.5799C27.0971 42.1399 26.4735 40.2519 26.4735 37.9159C26.4735 35.3559 27.0971 32.9399 28.3445 30.6679C29.5918 28.3639 31.2437 26.5239 33.3001 25.1479C35.3903 23.7399 37.5984 23.0359 39.9245 23.0359C40.6662 23.0359 41.155 23.1799 41.391 23.4679C41.6607 23.7239 41.8798 24.2039 42.0484 24.9079C42.7563 24.7799 43.498 24.7159 44.2734 24.7159C45.9252 24.7159 46.7512 25.2759 46.7512 26.3959C46.7512 27.0679 46.4983 28.6679 45.9927 31.1959C45.2173 34.8759 44.8296 37.4359 44.8296 38.8759C44.8296 39.3559 44.9476 39.7399 45.1836 40.0279C45.4533 40.3159 45.7904 40.4599 46.1949 40.4599C46.8355 40.4599 47.6108 40.0759 48.5211 39.3079C49.4313 38.5079 50.6618 37.2279 52.2125 35.4679C52.6171 35.0199 53.0722 34.7959 53.5779 34.7959C54.0161 34.7959 54.3532 34.9879 54.5892 35.3719C54.8589 35.7559 54.9938 36.2839 54.9938 36.9559C54.9938 38.2359 54.6735 39.2279 54.033 39.9319C52.6508 41.5639 51.1843 42.9399 49.6336 44.0599C48.0828 45.1799 46.5826 45.7399 45.133 45.7399C44.0205 45.7399 42.9923 45.3879 42.0484 44.6839C41.1382 43.9479 40.4471 42.9559 39.9751 41.7079C38.2221 44.3959 36.0139 45.7399 33.3507 45.7399ZM35.1711 40.8919C35.9128 40.8919 36.6208 40.4759 37.295 39.6439C37.9692 38.8119 38.4581 37.7079 38.7615 36.3319L40.6325 27.4999C39.2166 27.5319 37.9018 28.0439 36.6882 29.0359C35.5083 29.9959 34.5643 31.2759 33.8564 32.8759C33.1484 34.4759 32.7944 36.1719 32.7944 37.9639C32.7944 38.9559 32.9967 39.6919 33.4013 40.1719C33.8395 40.6519 34.4295 40.8919 35.1711 40.8919Z" fill="#FC9E11"/>
<path d="M54.4743 45.7399C53.1932 45.7399 52.283 45.0999 51.7436 43.8199C51.2379 42.5399 50.9851 40.4919 50.9851 37.6759C50.9851 33.5159 51.6087 29.5639 52.8561 25.8199C53.1595 24.8919 53.6483 24.2199 54.3225 23.8039C55.0305 23.3559 56.0081 23.1319 57.2555 23.1319C57.9297 23.1319 58.4017 23.2119 58.6714 23.3719C58.9411 23.5319 59.0759 23.8359 59.0759 24.2839C59.0759 24.7959 58.8231 25.9479 58.3174 27.7399C57.9803 29.0199 57.7106 30.1399 57.5083 31.0999C57.3061 32.0599 57.1375 33.2439 57.0026 34.6519C58.1151 31.8999 59.3625 29.6599 60.7447 27.9319C62.1269 26.2039 63.4753 24.9719 64.7901 24.2359C66.1386 23.4999 67.3691 23.1319 68.4816 23.1319C70.6728 23.1319 71.7685 24.1719 71.7685 26.2519C71.7685 26.6679 71.6168 27.6759 71.3134 29.2759C71.0437 30.5559 70.9088 31.3559 70.9088 31.6759C70.9088 32.7959 71.3302 33.3559 72.173 33.3559C73.1169 33.3559 74.3306 32.6519 75.8139 31.2439C76.2522 30.8279 76.7073 30.6199 77.1792 30.6199C77.6175 30.6199 77.9546 30.8119 78.1906 31.1959C78.4603 31.5479 78.5951 32.0279 78.5951 32.6359C78.5951 33.8199 78.258 34.7479 77.5838 35.4199C76.6398 36.3479 75.5274 37.1479 74.2463 37.8199C72.999 38.4599 71.6673 38.7799 70.2514 38.7799C68.4647 38.7799 67.0994 38.3479 66.1554 37.4839C65.2452 36.6199 64.7901 35.4519 64.7901 33.9799C64.7901 33.4999 64.8407 33.0199 64.9418 32.5399C65.0092 31.8999 65.0429 31.4679 65.0429 31.2439C65.0429 30.7319 64.8575 30.4759 64.4867 30.4759C63.981 30.4759 63.3068 31.0199 62.464 32.1079C61.6549 33.1639 60.8458 34.5719 60.0367 36.3319C59.2276 38.0919 58.5702 39.9479 58.0646 41.8999C57.6937 43.4039 57.2555 44.4279 56.7498 44.9719C56.2778 45.4839 55.5193 45.7399 54.4743 45.7399Z" fill="#FC9E11"/>
<path d="M83.9087 45.7399C80.5375 45.7399 78.0766 44.5079 76.5258 42.0439C75.0088 39.5799 74.2502 36.0119 74.2502 31.3399C74.2502 27.2119 74.7896 22.7319 75.8684 17.8999C76.9472 13.0359 78.5148 8.90788 80.5712 5.51588C82.6614 2.09188 85.1392 0.379883 88.0047 0.379883C89.5555 0.379883 90.8028 1.01988 91.7467 2.29988C92.6907 3.54788 93.1626 5.17988 93.1626 7.19588C93.1626 9.81988 92.6401 12.4279 91.595 15.0199C90.55 17.6119 88.8138 20.3319 86.3865 23.1799C88.0384 23.3079 89.4712 23.8359 90.6848 24.7639C91.9322 25.6919 92.8761 26.8919 93.5166 28.3639C94.1909 29.8359 94.528 31.4359 94.528 33.1639C94.528 35.5639 94.0223 37.7239 93.0109 39.6439C92.0333 41.5639 90.7354 43.0679 89.1172 44.1559C87.499 45.2119 85.7629 45.7399 83.9087 45.7399ZM80.9252 26.4439C83.1502 22.5719 84.9201 19.1639 86.2348 16.2199C87.5833 13.2439 88.2576 10.6039 88.2576 8.29988C88.2576 7.27588 88.1227 6.49188 87.853 5.94788C87.617 5.40388 87.2799 5.13188 86.8417 5.13188C86.1674 5.13188 85.4258 6.09188 84.6167 8.01188C83.8413 9.89988 83.1165 12.4759 82.4422 15.7399C81.768 19.0039 81.2623 22.5719 80.9252 26.4439ZM84.111 40.5559C85.2572 40.5559 86.218 39.9639 86.9934 38.7799C87.8024 37.5959 88.207 35.8679 88.207 33.5959C88.207 31.8359 87.8699 30.5079 87.1956 29.6119C86.5214 28.7159 85.7123 28.2679 84.7684 28.2679C83.5885 28.2679 82.594 28.8439 81.7849 29.9959C80.9758 31.1479 80.5712 32.8279 80.5712 35.0359C80.5712 36.9559 80.9084 38.3639 81.5826 39.2599C82.2568 40.1239 83.0996 40.5559 84.111 40.5559Z" fill="#FC9E11"/>
<path d="M113.907 40.2679C114.648 40.2359 115.204 40.4919 115.575 41.0359C115.98 41.5479 116.182 42.1879 116.182 42.9559C116.182 43.7559 115.98 44.4599 115.575 45.0679C115.204 45.6759 114.682 45.9799 114.008 45.9799C112.794 45.9799 111.648 45.9639 110.569 45.9319C109.524 45.8999 108.597 45.8679 107.788 45.8359C104.686 45.7079 102.495 45.6439 101.214 45.6439C100.776 45.6439 100.135 45.7879 99.2924 46.0759C98.2136 46.3959 97.472 46.5559 97.0674 46.5559C95.2807 46.5559 94.3873 45.4679 94.3873 43.2919C94.3873 41.8199 94.9436 40.1559 96.0561 38.2999C97.1686 36.4119 98.6182 34.5879 100.405 32.8279C102.192 31.0679 104.046 29.5959 105.967 28.4119L98.8373 28.6039C98.0956 28.6359 97.5225 28.3959 97.118 27.8839C96.7472 27.3399 96.5618 26.6999 96.5618 25.9639C96.5618 25.1959 96.7472 24.5239 97.118 23.9479C97.5225 23.3399 98.0619 23.0359 98.7362 23.0359C100.219 23.0359 102.057 23.1479 104.248 23.3719C104.619 23.4039 105.411 23.4679 106.625 23.5639C107.872 23.6599 109.018 23.7079 110.063 23.7079C110.401 23.7079 111.041 23.5799 111.985 23.3239C112.154 23.2919 112.474 23.2119 112.946 23.0839C113.451 22.9559 113.873 22.8919 114.21 22.8919C114.749 22.8919 115.188 23.1159 115.525 23.5639C115.896 24.0119 116.081 24.6999 116.081 25.6279C116.081 26.6519 115.811 27.4679 115.272 28.0759C114.766 28.6839 113.991 29.2279 112.946 29.7079C111.766 30.2199 110.384 31.0999 108.799 32.3479C107.215 33.5959 105.715 34.9879 104.299 36.5239C102.883 38.0279 101.838 39.4519 101.163 40.7959L113.907 40.2679Z" fill="#FC9E11"/>
<path d="M37.231 68.967C37.231 67.455 37.5438 66.114 38.1696 64.944C38.8144 63.774 39.6867 62.874 40.7865 62.244C41.8864 61.614 43.1095 61.299 44.4558 61.299C45.4798 61.299 46.4564 61.515 47.3856 61.947C48.3148 62.361 49.0544 62.919 49.6043 63.621V56.52H53.6434V76.5H49.6043V74.286C49.1113 75.024 48.4191 75.618 47.5278 76.068C46.6366 76.518 45.6031 76.743 44.4274 76.743C43.1 76.743 41.8864 76.419 40.7865 75.771C39.6867 75.123 38.8144 74.214 38.1696 73.044C37.5438 71.856 37.231 70.497 37.231 68.967ZM49.6327 69.021C49.6327 68.103 49.4431 67.32 49.0638 66.672C48.6846 66.006 48.1726 65.502 47.5278 65.16C46.8831 64.8 46.191 64.62 45.4514 64.62C44.7118 64.62 44.0292 64.791 43.4034 65.133C42.7776 65.475 42.2656 65.979 41.8674 66.645C41.4881 67.293 41.2985 68.067 41.2985 68.967C41.2985 69.867 41.4881 70.659 41.8674 71.343C42.2656 72.009 42.7776 72.522 43.4034 72.882C44.0481 73.242 44.7308 73.422 45.4514 73.422C46.191 73.422 46.8831 73.251 47.5278 72.909C48.1726 72.549 48.6846 72.045 49.0638 71.397C49.4431 70.731 49.6327 69.939 49.6327 69.021Z" fill="#050533"/>
<path d="M59.5523 59.76C58.8507 59.76 58.2628 59.553 57.7887 59.139C57.3336 58.707 57.1061 58.176 57.1061 57.546C57.1061 56.916 57.3336 56.394 57.7887 55.98C58.2628 55.548 58.8507 55.332 59.5523 55.332C60.2539 55.332 60.8323 55.548 61.2874 55.98C61.7615 56.394 61.9985 56.916 61.9985 57.546C61.9985 58.176 61.7615 58.707 61.2874 59.139C60.8323 59.553 60.2539 59.76 59.5523 59.76ZM61.515 61.542V76.5H57.5327V61.542H61.515Z" fill="#050533"/>
<path d="M71.6219 61.299C72.7976 61.299 73.831 61.524 74.7223 61.974C75.6136 62.406 76.3152 62.973 76.8272 63.675V61.542H80.8379V76.608C80.8379 77.994 80.5439 79.227 79.9561 80.307C79.3682 81.405 78.4864 82.269 77.3107 82.899C76.135 83.547 74.7128 83.871 73.0441 83.871C70.8064 83.871 68.967 83.376 67.5258 82.386C66.1036 81.396 65.2977 80.046 65.1081 78.336H69.0618C69.2704 79.02 69.7161 79.56 70.3987 79.956C71.1004 80.37 71.9442 80.577 72.9303 80.577C74.087 80.577 75.0257 80.244 75.7463 79.578C76.4669 78.93 76.8272 77.94 76.8272 76.608V74.286C76.3152 74.988 75.6041 75.573 74.6939 76.041C73.8026 76.509 72.7786 76.743 71.6219 76.743C70.2944 76.743 69.0808 76.419 67.981 75.771C66.8811 75.123 66.0088 74.214 65.3641 73.044C64.7383 71.856 64.4254 70.497 64.4254 68.967C64.4254 67.455 64.7383 66.114 65.3641 64.944C66.0088 63.774 66.8716 62.874 67.9525 62.244C69.0524 61.614 70.2755 61.299 71.6219 61.299ZM76.8272 69.021C76.8272 68.103 76.6376 67.32 76.2583 66.672C75.879 66.006 75.367 65.502 74.7223 65.16C74.0776 64.8 73.3854 64.62 72.6459 64.62C71.9063 64.62 71.2236 64.791 70.5978 65.133C69.9721 65.475 69.4601 65.979 69.0618 66.645C68.6826 67.293 68.493 68.067 68.493 68.967C68.493 69.867 68.6826 70.659 69.0618 71.343C69.4601 72.009 69.9721 72.522 70.5978 72.882C71.2426 73.242 71.9253 73.422 72.6459 73.422C73.3854 73.422 74.0776 73.251 74.7223 72.909C75.367 72.549 75.879 72.045 76.2583 71.397C76.6376 70.731 76.8272 69.939 76.8272 69.021Z" fill="#050533"/>
<path d="M86.7467 59.76C86.0451 59.76 85.4573 59.553 84.9832 59.139C84.5281 58.707 84.3005 58.176 84.3005 57.546C84.3005 56.916 84.5281 56.394 84.9832 55.98C85.4573 55.548 86.0451 55.332 86.7467 55.332C87.4484 55.332 88.0267 55.548 88.4819 55.98C88.9559 56.394 89.193 56.916 89.193 57.546C89.193 58.176 88.9559 58.707 88.4819 59.139C88.0267 59.553 87.4484 59.76 86.7467 59.76ZM88.7094 61.542V76.5H84.7272V61.542H88.7094Z" fill="#050533"/>
<path d="M97.2803 64.647V71.883C97.2803 72.387 97.4036 72.756 97.6501 72.99C97.9156 73.206 98.3517 73.314 98.9585 73.314H100.807V76.5H98.3043C94.9479 76.5 93.2696 74.952 93.2696 71.856V64.647H91.3923V61.542H93.2696V57.843H97.2803V61.542H100.807V64.647H97.2803Z" fill="#050533"/>
<path d="M102.648 68.967C102.648 67.455 102.961 66.114 103.586 64.944C104.231 63.774 105.094 62.874 106.175 62.244C107.275 61.614 108.498 61.299 109.844 61.299C111.02 61.299 112.044 61.524 112.916 61.974C113.807 62.424 114.518 62.991 115.049 63.675V61.542H119.06V76.5H115.049V74.313C114.537 75.015 113.826 75.6 112.916 76.068C112.025 76.518 110.991 76.743 109.816 76.743C108.488 76.743 107.275 76.419 106.175 75.771C105.094 75.123 104.231 74.214 103.586 73.044C102.961 71.856 102.648 70.497 102.648 68.967ZM115.049 69.021C115.049 68.103 114.86 67.32 114.481 66.672C114.101 66.006 113.589 65.502 112.945 65.16C112.3 64.8 111.608 64.62 110.868 64.62C110.129 64.62 109.446 64.791 108.82 65.133C108.194 65.475 107.682 65.979 107.284 66.645C106.905 67.293 106.715 68.067 106.715 68.967C106.715 69.867 106.905 70.659 107.284 71.343C107.682 72.009 108.194 72.522 108.82 72.882C109.465 73.242 110.147 73.422 110.868 73.422C111.608 73.422 112.3 73.251 112.945 72.909C113.589 72.549 114.101 72.045 114.481 71.397C114.86 70.731 115.049 69.939 115.049 69.021Z" fill="#050533"/>
<path d="M126.932 56.52V76.5H122.949V56.52H126.932Z" fill="#050533"/>
</svg>
