<svg width="128" height="162" viewBox="0 0 128 162" fill="none" xmlns="http://www.w3.org/2000/svg">
<path d="M104.102 42.925C105.701 42.925 106.932 43.6842 107.793 45.2027C108.778 46.6043 109.27 48.4148 109.27 50.634C109.27 53.3205 108.839 55.4229 107.978 56.9414C107.116 58.4598 105.763 59.803 103.917 60.9711L68.4782 83.5724C63.8022 107.751 57.6496 126.731 50.0205 140.514C42.5143 154.413 32.9163 161.363 21.2264 161.363C14.9508 161.363 9.84412 159.494 5.90647 155.757C1.96882 152.136 0 147.347 0 141.39C0 135.9 1.29204 130.294 3.87612 124.57C6.58326 118.847 11.5053 112.248 18.6423 104.772C25.9023 97.4136 36.1156 88.9454 49.2821 79.3675L49.8359 75.3378C50.6972 71.0161 51.6816 64.8256 52.7891 56.7662C50.3281 65.176 46.8826 71.6001 42.4528 76.0386C38.0229 80.3603 33.347 82.5212 28.4249 82.5212C22.8876 82.5212 18.3347 80.1267 14.7662 75.3378C11.3207 70.4321 9.59802 64.3584 9.59802 57.1166C9.59802 48.3564 10.2133 40.3554 11.4438 33.1136C12.6743 25.755 14.7047 17.9876 17.5348 9.81144C18.7654 6.30735 20.4881 3.79609 22.703 2.27766C24.9179 0.759219 28.4249 0 33.2239 0C35.931 0 37.7768 0.408805 38.7612 1.22642C39.8687 2.04404 40.4224 3.27047 40.4224 4.90571C40.4224 5.84014 39.7456 8.99382 38.3921 14.3668C37.1616 18.6885 36.1772 22.6013 35.4388 26.1054C34.4544 30.8943 33.5931 35.5081 32.8548 39.9466C32.1165 44.2683 31.7473 47.8308 31.7473 50.634C31.7473 55.0725 33.0393 57.2918 35.6234 57.2918C37.4692 57.2918 39.7456 55.5397 42.4528 52.0357C45.283 48.5316 48.2362 43.217 51.3125 36.0921C54.5118 28.9671 57.5881 20.2069 60.5414 9.81144C61.5258 6.30735 63.0024 3.79609 64.9712 2.27766C67.0631 0.759219 70.1394 0 74.2001 0C77.0303 0 78.9991 0.350407 80.1065 1.05123C81.214 1.75204 81.7677 2.92007 81.7677 4.55531C81.7677 7.47538 80.1681 17.5204 76.9687 34.6904L72.1697 62.8983C81.6447 56.1238 90.8736 49.9332 99.8563 44.3267C101.456 43.3923 102.871 42.925 104.102 42.925ZM23.2567 144.368C26.333 144.368 29.7785 140.981 33.5931 134.206C37.4077 127.432 41.2223 116.16 45.0369 100.392C35.5619 107.984 28.671 114.876 24.3642 121.066C20.1804 127.373 18.0886 132.863 18.0886 137.535C18.0886 139.521 18.4577 141.156 19.196 142.441C20.0574 143.726 21.411 144.368 23.2567 144.368Z" fill="#7DE2D1"/>
<path d="M126.825 96.4792V109.939H88V96.4792H126.825ZM96.8143 81H114.695V141.234C114.695 142.889 114.946 144.179 115.45 145.104C115.954 146.001 116.653 146.632 117.549 146.997C118.472 147.362 119.536 147.544 120.739 147.544C121.578 147.544 122.418 147.474 123.257 147.333C124.097 147.165 124.74 147.039 125.188 146.955L128 160.289C127.105 160.569 125.845 160.892 124.222 161.256C122.6 161.649 120.627 161.887 118.304 161.971C113.995 162.14 110.218 161.565 106.972 160.247C103.754 158.929 101.249 156.882 99.4586 154.106C97.6677 151.329 96.7863 147.824 96.8143 143.59V81Z" fill="#050533"/>
</svg>
