<svg width="23" height="26" viewBox="0 0 23 26" fill="none" xmlns="http://www.w3.org/2000/svg">
<g id="Layer_1">
<path id="Vector" d="M20.736 5.56582L18.2698 3.36699C18.1934 3.2959 18.099 3.24512 17.9912 3.24512C17.8834 3.24512 17.7846 3.2959 17.7082 3.37207L8.73733 16.4025C8.73733 16.4025 5.21096 12.5686 5.11213 12.4568C5.01331 12.3451 4.88303 12.1572 4.68538 12.1572C4.48772 12.1572 4.39788 12.3146 4.29456 12.4314C4.21819 12.5229 2.96038 14.0158 2.34045 14.7572C2.30452 14.8029 2.28206 14.8283 2.25061 14.8639C2.1967 14.9502 2.16077 15.0467 2.16077 15.1533C2.16077 15.265 2.1967 15.3564 2.25061 15.4428L2.37639 15.5748C2.37639 15.5748 8.63401 22.3693 8.73733 22.4861C8.84065 22.6029 8.96643 22.7502 9.15061 22.7502C9.3303 22.7502 9.47854 22.5318 9.56389 22.4354L20.7539 6.18535C20.8078 6.09902 20.8438 6.00254 20.8438 5.89082C20.8438 5.76387 20.7989 5.65723 20.736 5.56582Z" fill="#7DE2D1"/>
</g>
</svg>
