<svg width="43" height="43" viewBox="0 0 43 43" fill="none" xmlns="http://www.w3.org/2000/svg">
<path d="M8.86877 13.7231C11.3883 13.7231 13.4543 11.6739 13.4543 9.13755C13.4543 6.60122 11.4051 4.552 8.86877 4.552C6.33244 4.552 4.30002 6.61802 4.30002 9.13755C4.30002 11.6571 6.34924 13.7231 8.86877 13.7231ZM8.86877 6.29888C10.4309 6.29888 11.7242 7.57544 11.7242 9.15435C11.7242 10.7333 10.4477 12.0098 8.86877 12.0098C7.28986 12.0098 6.0133 10.7333 6.0133 9.15435C6.0133 7.57544 7.30666 6.29888 8.86877 6.29888Z" fill="white"/>
<path d="M14.2942 19.0309C13.8238 18.9973 13.4039 19.3668 13.3703 19.8371L12.6649 29.8985C12.6649 29.9321 12.6481 29.9488 12.6481 29.9824L12.0098 39.775C11.993 40.1446 11.6738 40.4469 11.3043 40.4469H6.43322C6.06368 40.4469 5.74454 40.1614 5.72775 39.775L5.08947 29.9824C5.07267 29.6297 4.82072 29.3106 4.48478 29.2098C4.30001 29.1594 3.76251 28.9914 3.67853 28.9074C3.61134 28.8067 3.57775 28.2692 3.56095 28.0004L2.97306 17.6199V17.6031C4.06486 17.284 5.13986 16.9313 6.23165 16.5785C6.71876 17.1496 7.20587 17.7039 7.70978 18.275L8.23048 18.8629C8.39845 19.0477 8.63361 19.1653 8.88556 19.1653C9.13751 19.1653 9.37267 19.0645 9.54064 18.8629L10.1453 18.1742C10.6324 17.6199 11.0859 17.0992 11.5395 16.5617L19.0645 18.2582C19.182 18.2918 19.3164 18.2918 19.434 18.2582L26.2199 16.8641C26.6903 16.7633 26.9926 16.3098 26.8918 15.8395C26.791 15.3692 26.3375 15.0668 25.8672 15.1676L19.266 16.5281L11.8418 14.8485C11.8082 14.8317 11.7578 14.8317 11.7242 14.8317C11.5059 14.8149 10.7668 14.7981 10.3133 15.3356C9.84298 15.8899 9.37267 16.4274 8.88556 16.9817C8.39845 16.4274 7.92814 15.8899 7.45783 15.3356C7.02111 14.8317 6.46681 14.6637 5.86212 14.8653C4.70314 15.2516 3.54415 15.6211 2.38517 15.9738C1.64611 16.209 1.24298 16.7633 1.24298 17.5192C1.24298 17.5696 1.24298 17.7039 1.24298 17.7207L1.81407 27.9668L1.83087 28.1348C1.93165 29.6297 2.15001 30.2008 3.40978 30.6879L4.01447 39.9094C4.09845 41.186 5.17345 42.1938 6.45001 42.1938H11.3211C12.5977 42.1938 13.6727 41.186 13.7567 39.9094L14.3949 30.2008C14.3949 30.1672 14.3949 30.1504 14.4117 30.1168L15.1172 19.9715C15.1172 19.4844 14.7645 19.0645 14.2942 19.0309Z" fill="white"/>
<path d="M40.9004 0.806274H8.86877C8.39846 0.806274 7.99533 1.1926 7.99533 1.67971C7.99533 2.16682 8.38166 2.55315 8.86877 2.55315H40.027V25.061H17.0488C16.5785 25.061 16.1754 25.4473 16.1754 25.9344C16.1754 26.4047 16.5617 26.8078 17.0488 26.8078H40.9004C41.3707 26.8078 41.7738 26.4215 41.7738 25.9344V1.67971C41.7738 1.2094 41.3875 0.806274 40.9004 0.806274Z" fill="white"/>
</svg>
