<svg width="41" height="41" viewBox="0 0 41 41" fill="none" xmlns="http://www.w3.org/2000/svg">
<path d="M39.0941 17.0886C38.5496 16.432 37.7488 16.0636 36.9 16.0636H25.5449L27.6269 4.70854C27.7711 3.90776 27.5789 3.09097 27.0824 2.45034C26.6019 1.82573 25.8812 1.44136 25.1125 1.39331C25.0324 1.39331 24.9683 1.39331 24.9043 1.39331C24.5359 1.39331 24.1676 1.44136 23.7992 1.50542C23.1265 1.63354 22.4859 1.85776 21.8773 2.19409C21.8613 2.21011 21.8453 2.21011 21.8293 2.22612C20.484 2.97886 19.459 4.19604 18.9625 5.65347L15.2148 16.0636H3.89177C2.41833 16.0636 1.21716 17.2648 1.21716 18.7382V34.9941C1.24919 36.4355 2.45037 37.6046 3.89177 37.6046H10.9066C12.3961 38.9019 14.2859 39.6066 16.2398 39.6066C16.2558 39.6066 16.2718 39.6066 16.2879 39.6066H34.0011C35.4746 39.6066 36.6918 38.4214 36.7238 36.948L39.7508 19.4269C39.8789 18.5941 39.6386 17.7453 39.0941 17.0886ZM10.0418 36.0832H3.89177C3.26716 36.0832 2.75466 35.5867 2.75466 34.9781V18.7382C2.75466 18.1136 3.26716 17.6011 3.89177 17.6011H10.0418V36.0832ZM38.2293 19.1707L35.2023 36.7558C35.2023 36.8039 35.1863 36.8359 35.1863 36.8839C35.1863 37.5406 34.6418 38.0851 33.9851 38.0851H16.2718C16.2558 38.0851 16.2558 38.0851 16.2398 38.0851C14.6383 38.0851 13.0847 37.4925 11.8676 36.4355L11.8195 36.3714C11.7554 36.2914 11.6593 36.2113 11.5633 36.1632V17.5851H15.7433C16.0636 17.5851 16.3519 17.3769 16.464 17.0886L20.4039 6.16597C20.7883 5.04487 21.573 4.11597 22.614 3.5394C22.6301 3.52339 22.6461 3.52339 22.6621 3.50737C23.1105 3.26714 23.575 3.09097 24.0715 2.99487C24.3437 2.94683 24.632 2.9148 24.9043 2.9148C24.9203 2.9148 24.9523 2.9148 24.9843 2.9148C25.3207 2.94683 25.641 3.10698 25.8492 3.37925C26.0734 3.66753 26.1695 4.0519 26.1054 4.42026L23.8633 16.6882C23.8152 16.9125 23.8793 17.1367 24.0234 17.3128C24.1676 17.489 24.3758 17.5851 24.616 17.5851H36.884C37.2843 17.5851 37.6687 17.7613 37.925 18.0656C38.1812 18.3859 38.2933 18.7863 38.2293 19.1707Z" fill="#F5F5F5"/>
<path d="M4.78863 23.0304C4.98081 23.0304 5.173 22.9504 5.31714 22.8062L8.32808 19.8593C8.63238 19.5711 8.63238 19.0746 8.3441 18.7863C8.05581 18.482 7.55933 18.482 7.27105 18.7703L4.26011 21.7172C3.95581 22.0054 3.95581 22.5019 4.2441 22.7902C4.38824 22.9664 4.59644 23.0304 4.78863 23.0304Z" fill="#F5F5F5"/>
<path d="M4.78863 29.6289C4.98081 29.6289 5.173 29.5488 5.31714 29.4047L8.53628 26.2496C8.84058 25.9613 8.84058 25.4809 8.5523 25.1766C8.26402 24.8723 7.76753 24.8723 7.47925 25.1605L4.26011 28.3156C3.95581 28.6039 3.95581 29.0844 4.2441 29.3887C4.38824 29.5488 4.59644 29.6289 4.78863 29.6289Z" fill="#F5F5F5"/>
<path d="M7.47928 31.7429L5.36521 33.809C5.06092 34.0972 5.06092 34.5937 5.3492 34.882C5.49334 35.0422 5.70154 35.1062 5.89373 35.1062C6.08592 35.1062 6.2781 35.0261 6.42224 34.882L8.53631 32.832C8.8406 32.5437 8.8406 32.0472 8.55232 31.759C8.26404 31.4547 7.76756 31.4547 7.47928 31.7429Z" fill="#F5F5F5"/>
</svg>
