<svg width="149" height="85" viewBox="0 0 149 85" fill="none" xmlns="http://www.w3.org/2000/svg">
<path d="M28.5203 34.512C28.9586 34.512 29.2957 34.72 29.5317 35.136C29.8013 35.52 29.9362 36.016 29.9362 36.624C29.9362 37.36 29.8182 37.936 29.5822 38.352C29.3462 38.768 28.9754 39.136 28.4697 39.456L18.7607 45.648C17.4796 52.272 15.794 57.472 13.7039 61.248C11.6475 65.056 9.01794 66.96 5.81531 66.96C4.096 66.96 2.69695 66.448 1.61817 65.424C0.539391 64.432 0 63.12 0 61.488C0 59.984 0.353975 58.448 1.06193 56.88C1.80359 55.312 3.15207 53.504 5.10736 51.456C7.09636 49.44 9.89445 47.12 13.5016 44.496L13.6533 43.392C13.8893 42.208 14.159 40.512 14.4624 38.304C13.7882 40.608 12.8442 42.368 11.6306 43.584C10.417 44.768 9.13593 45.36 7.78746 45.36C6.27042 45.36 5.02308 44.704 4.04543 43.392C3.1015 42.048 2.62953 40.384 2.62953 38.4C2.62953 36 2.79809 33.808 3.13521 31.824C3.47233 29.808 4.02858 27.68 4.80395 25.44C5.14107 24.48 5.61304 23.792 6.21985 23.376C6.82667 22.96 7.78746 22.752 9.10222 22.752C9.84389 22.752 10.3496 22.864 10.6193 23.088C10.9227 23.312 11.0744 23.648 11.0744 24.096C11.0744 24.352 10.889 25.216 10.5181 26.688C10.181 27.872 9.91131 28.944 9.70904 29.904C9.43934 31.216 9.20336 32.48 9.00109 33.696C8.79882 34.88 8.69768 35.856 8.69768 36.624C8.69768 37.84 9.05166 38.448 9.75961 38.448C10.2653 38.448 10.889 37.968 11.6306 37.008C12.406 36.048 13.2151 34.592 14.0579 32.64C14.9344 30.688 15.7772 28.288 16.5863 25.44C16.856 24.48 17.2605 23.792 17.7999 23.376C18.373 22.96 19.2158 22.752 20.3283 22.752C21.1037 22.752 21.6431 22.848 21.9465 23.04C22.2499 23.232 22.4016 23.552 22.4016 24C22.4016 24.8 21.9633 27.552 21.0868 32.256L19.772 39.984C22.3679 38.128 24.8963 36.432 27.3572 34.896C27.7955 34.64 28.1832 34.512 28.5203 34.512ZM6.37156 62.304C7.21435 62.304 8.15829 61.376 9.20336 59.52C10.2484 57.664 11.2935 54.576 12.3386 50.256C9.74275 52.336 7.85488 54.224 6.67496 55.92C5.52876 57.648 4.95565 59.152 4.95565 60.432C4.95565 60.976 5.05679 61.424 5.25906 61.776C5.49505 62.128 5.86588 62.304 6.37156 62.304Z" fill="#7DE2D1"/>
<path d="M32.5531 45.36C30.4629 45.36 28.7942 44.64 27.5469 43.2C26.2995 41.76 25.6759 39.872 25.6759 37.536C25.6759 34.976 26.2995 32.56 27.5469 30.288C28.7942 27.984 30.4461 26.144 32.5025 24.768C34.5927 23.36 36.8008 22.656 39.1269 22.656C39.8686 22.656 40.3574 22.8 40.5934 23.088C40.8631 23.344 41.0822 23.824 41.2508 24.528C41.9587 24.4 42.7004 24.336 43.4758 24.336C45.1276 24.336 45.9536 24.896 45.9536 26.016C45.9536 26.688 45.7007 28.288 45.1951 30.816C44.4197 34.496 44.032 37.056 44.032 38.496C44.032 38.976 44.15 39.36 44.386 39.648C44.6557 39.936 44.9928 40.08 45.3973 40.08C46.0379 40.08 46.8132 39.696 47.7235 38.928C48.6337 38.128 49.8642 36.848 51.4149 35.088C51.8195 34.64 52.2746 34.416 52.7802 34.416C53.2185 34.416 53.5556 34.608 53.7916 34.992C54.0613 35.376 54.1962 35.904 54.1962 36.576C54.1962 37.856 53.8759 38.848 53.2354 39.552C51.8532 41.184 50.3867 42.56 48.836 43.68C47.2852 44.8 45.785 45.36 44.3354 45.36C43.2229 45.36 42.1947 45.008 41.2508 44.304C40.3405 43.568 39.6495 42.576 39.1775 41.328C37.4245 44.016 35.2163 45.36 32.5531 45.36ZM34.3735 40.512C35.1152 40.512 35.8231 40.096 36.4974 39.264C37.1716 38.432 37.6604 37.328 37.9639 35.952L39.8349 27.12C38.419 27.152 37.1042 27.664 35.8906 28.656C34.7106 29.616 33.7667 30.896 33.0588 32.496C32.3508 34.096 31.9968 35.792 31.9968 37.584C31.9968 38.576 32.1991 39.312 32.6037 39.792C33.0419 40.272 33.6319 40.512 34.3735 40.512Z" fill="#7DE2D1"/>
<path d="M53.6766 45.36C52.3956 45.36 51.4854 44.72 50.946 43.44C50.4403 42.16 50.1875 40.112 50.1875 37.296C50.1875 33.136 50.8111 29.184 52.0585 25.44C52.3619 24.512 52.8507 23.84 53.5249 23.424C54.2329 22.976 55.2105 22.752 56.4579 22.752C57.1321 22.752 57.6041 22.832 57.8738 22.992C58.1435 23.152 58.2783 23.456 58.2783 23.904C58.2783 24.416 58.0255 25.568 57.5198 27.36C57.1827 28.64 56.913 29.76 56.7107 30.72C56.5084 31.68 56.3399 32.864 56.205 34.272C57.3175 31.52 58.5649 29.28 59.9471 27.552C61.3293 25.824 62.6777 24.592 63.9925 23.856C65.341 23.12 66.5715 22.752 67.684 22.752C69.8752 22.752 70.9709 23.792 70.9709 25.872C70.9709 26.288 70.8192 27.296 70.5158 28.896C70.2461 30.176 70.1112 30.976 70.1112 31.296C70.1112 32.416 70.5326 32.976 71.3754 32.976C72.3193 32.976 73.533 32.272 75.0163 30.864C75.4546 30.448 75.9097 30.24 76.3816 30.24C76.8199 30.24 77.157 30.432 77.393 30.816C77.6627 31.168 77.7975 31.648 77.7975 32.256C77.7975 33.44 77.4604 34.368 76.7862 35.04C75.8422 35.968 74.7297 36.768 73.4487 37.44C72.2014 38.08 70.8697 38.4 69.4538 38.4C67.6671 38.4 66.3018 37.968 65.3578 37.104C64.4476 36.24 63.9925 35.072 63.9925 33.6C63.9925 33.12 64.0431 32.64 64.1442 32.16C64.2116 31.52 64.2453 31.088 64.2453 30.864C64.2453 30.352 64.0599 30.096 63.6891 30.096C63.1834 30.096 62.5092 30.64 61.6664 31.728C60.8573 32.784 60.0482 34.192 59.2391 35.952C58.43 37.712 57.7726 39.568 57.267 41.52C56.8961 43.024 56.4579 44.048 55.9522 44.592C55.4802 45.104 54.7217 45.36 53.6766 45.36Z" fill="#7DE2D1"/>
<path d="M83.1111 45.36C79.7399 45.36 77.2789 44.128 75.7282 41.664C74.2112 39.2 73.4526 35.632 73.4526 30.96C73.4526 26.832 73.992 22.352 75.0708 17.52C76.1496 12.656 77.7172 8.528 79.7736 5.136C81.8638 1.712 84.3416 0 87.2071 0C88.7579 0 90.0052 0.64 90.9491 1.92C91.8931 3.168 92.365 4.8 92.365 6.816C92.365 9.44 91.8425 12.048 90.7974 14.64C89.7524 17.232 88.0162 19.952 85.5889 22.8C87.2408 22.928 88.6736 23.456 89.8872 24.384C91.1345 25.312 92.0785 26.512 92.719 27.984C93.3933 29.456 93.7304 31.056 93.7304 32.784C93.7304 35.184 93.2247 37.344 92.2133 39.264C91.2357 41.184 89.9378 42.688 88.3196 43.776C86.7014 44.832 84.9653 45.36 83.1111 45.36ZM80.1276 26.064C82.3526 22.192 84.1225 18.784 85.4372 15.84C86.7857 12.864 87.46 10.224 87.46 7.92C87.46 6.896 87.3251 6.112 87.0554 5.568C86.8194 5.024 86.4823 4.752 86.0441 4.752C85.3698 4.752 84.6282 5.712 83.8191 7.632C83.0437 9.52 82.3189 12.096 81.6446 15.36C80.9704 18.624 80.4647 22.192 80.1276 26.064ZM83.3134 40.176C84.4596 40.176 85.4204 39.584 86.1958 38.4C87.0048 37.216 87.4094 35.488 87.4094 33.216C87.4094 31.456 87.0723 30.128 86.398 29.232C85.7238 28.336 84.9147 27.888 83.9708 27.888C82.7908 27.888 81.7963 28.464 80.9873 29.616C80.1782 30.768 79.7736 32.448 79.7736 34.656C79.7736 36.576 80.1107 37.984 80.785 38.88C81.4592 39.744 82.302 40.176 83.3134 40.176Z" fill="#7DE2D1"/>
<path d="M113.109 39.888C113.851 39.856 114.407 40.112 114.778 40.656C115.182 41.168 115.384 41.808 115.384 42.576C115.384 43.376 115.182 44.08 114.778 44.688C114.407 45.296 113.884 45.6 113.21 45.6C111.996 45.6 110.85 45.584 109.771 45.552C108.726 45.52 107.799 45.488 106.99 45.456C103.889 45.328 101.697 45.264 100.416 45.264C99.9781 45.264 99.3376 45.408 98.4948 45.696C97.416 46.016 96.6744 46.176 96.2698 46.176C94.4831 46.176 93.5897 45.088 93.5897 42.912C93.5897 41.44 94.146 39.776 95.2585 37.92C96.371 36.032 97.8206 34.208 99.6073 32.448C101.394 30.688 103.248 29.216 105.17 28.032L98.0397 28.224C97.298 28.256 96.7249 28.016 96.3204 27.504C95.9496 26.96 95.7641 26.32 95.7641 25.584C95.7641 24.816 95.9496 24.144 96.3204 23.568C96.7249 22.96 97.2643 22.656 97.9386 22.656C99.4219 22.656 101.259 22.768 103.45 22.992C103.821 23.024 104.614 23.088 105.827 23.184C107.074 23.28 108.221 23.328 109.266 23.328C109.603 23.328 110.243 23.2 111.187 22.944C111.356 22.912 111.676 22.832 112.148 22.704C112.654 22.576 113.075 22.512 113.412 22.512C113.952 22.512 114.39 22.736 114.727 23.184C115.098 23.632 115.283 24.32 115.283 25.248C115.283 26.272 115.014 27.088 114.474 27.696C113.969 28.304 113.193 28.848 112.148 29.328C110.968 29.84 109.586 30.72 108.002 31.968C106.417 33.216 104.917 34.608 103.501 36.144C102.085 37.648 101.04 39.072 100.366 40.416L113.109 39.888Z" fill="#7DE2D1"/>
<path d="M139.913 60.856C141.071 60.856 142.088 61.0893 142.965 61.556C143.843 62.004 144.533 62.592 145.037 63.32V61.108H148.985V76.732C148.985 78.1693 148.696 79.448 148.117 80.568C147.539 81.7067 146.671 82.6027 145.513 83.256C144.356 83.928 142.956 84.264 141.313 84.264C139.111 84.264 137.3 83.7507 135.881 82.724C134.481 81.6973 133.688 80.2973 133.501 78.524H137.393C137.599 79.2333 138.037 79.7933 138.709 80.204C139.4 80.6333 140.231 80.848 141.201 80.848C142.34 80.848 143.264 80.5027 143.973 79.812C144.683 79.14 145.037 78.1133 145.037 76.732V74.324C144.533 75.052 143.833 75.6587 142.937 76.144C142.06 76.6293 141.052 76.872 139.913 76.872C138.607 76.872 137.412 76.536 136.329 75.864C135.247 75.192 134.388 74.2493 133.753 73.036C133.137 71.804 132.829 70.3947 132.829 68.808C132.829 67.24 133.137 65.8493 133.753 64.636C134.388 63.4227 135.237 62.4893 136.301 61.836C137.384 61.1827 138.588 60.856 139.913 60.856ZM145.037 68.864C145.037 67.912 144.851 67.1 144.477 66.428C144.104 65.7373 143.6 65.2147 142.965 64.86C142.331 64.4867 141.649 64.3 140.921 64.3C140.193 64.3 139.521 64.4773 138.905 64.832C138.289 65.1867 137.785 65.7093 137.393 66.4C137.02 67.072 136.833 67.8747 136.833 68.808C136.833 69.7413 137.02 70.5627 137.393 71.272C137.785 71.9627 138.289 72.4947 138.905 72.868C139.54 73.2413 140.212 73.428 140.921 73.428C141.649 73.428 142.331 73.2507 142.965 72.896C143.6 72.5227 144.104 72 144.477 71.328C144.851 70.6373 145.037 69.816 145.037 68.864Z" fill="white"/>
<path d="M123.922 60.884C125.77 60.884 127.263 61.472 128.402 62.648C129.54 63.8053 130.11 65.4293 130.11 67.52V76.62H126.19V68.052C126.19 66.82 125.882 65.8773 125.266 65.224C124.65 64.552 123.81 64.216 122.746 64.216C121.663 64.216 120.804 64.552 120.17 65.224C119.554 65.8773 119.246 66.82 119.246 68.052V76.62H115.326V61.108H119.246V63.04C119.768 62.368 120.431 61.8453 121.234 61.472C122.055 61.08 122.951 60.884 123.922 60.884Z" fill="white"/>
<path d="M109.521 59.26C108.83 59.26 108.251 59.0453 107.785 58.616C107.337 58.168 107.113 57.6173 107.113 56.964C107.113 56.3107 107.337 55.7693 107.785 55.34C108.251 54.892 108.83 54.668 109.521 54.668C110.211 54.668 110.781 54.892 111.229 55.34C111.695 55.7693 111.929 56.3107 111.929 56.964C111.929 57.6173 111.695 58.168 111.229 58.616C110.781 59.0453 110.211 59.26 109.521 59.26ZM111.453 61.108V76.62H107.533V61.108H111.453Z" fill="white"/>
<path d="M100.132 63.516C100.636 62.6947 101.29 62.0507 102.092 61.584C102.914 61.1173 103.847 60.884 104.892 60.884V65H103.856C102.624 65 101.691 65.2893 101.056 65.868C100.44 66.4467 100.132 67.4547 100.132 68.892V76.62H96.2124V61.108H100.132V63.516Z" fill="white"/>
<path d="M85.245 76.872C83.7516 76.872 82.4076 76.5453 81.213 75.892C80.0183 75.22 79.0756 74.2773 78.385 73.064C77.713 71.8507 77.377 70.4507 77.377 68.864C77.377 67.2773 77.7223 65.8773 78.413 64.664C79.1223 63.4507 80.0836 62.5173 81.297 61.864C82.5103 61.192 83.8636 60.856 85.357 60.856C86.8503 60.856 88.2036 61.192 89.417 61.864C90.6303 62.5173 91.5823 63.4507 92.273 64.664C92.9823 65.8773 93.337 67.2773 93.337 68.864C93.337 70.4507 92.973 71.8507 92.245 73.064C91.5356 74.2773 90.565 75.22 89.333 75.892C88.1196 76.5453 86.757 76.872 85.245 76.872ZM85.245 73.456C85.9543 73.456 86.617 73.288 87.233 72.952C87.8676 72.5973 88.3716 72.0747 88.745 71.384C89.1183 70.6933 89.305 69.8533 89.305 68.864C89.305 67.3893 88.913 66.26 88.129 65.476C87.3636 64.6733 86.421 64.272 85.301 64.272C84.181 64.272 83.2383 64.6733 82.473 65.476C81.7263 66.26 81.353 67.3893 81.353 68.864C81.353 70.3387 81.717 71.4773 82.445 72.28C83.1916 73.064 84.125 73.456 85.245 73.456Z" fill="white"/>
<path d="M72.0655 64.328V71.832C72.0655 72.3547 72.1868 72.7373 72.4295 72.98C72.6908 73.204 73.1201 73.316 73.7175 73.316H75.5375V76.62H73.0735C69.7695 76.62 68.1175 75.0147 68.1175 71.804V64.328H66.2695V61.108H68.1175V57.272H72.0655V61.108H75.5375V64.328H72.0655Z" fill="white"/>
<path d="M63.6338 61.108V76.62H59.6858V74.66C59.1818 75.332 58.5191 75.864 57.6978 76.256C56.8951 76.6293 56.0178 76.816 55.0658 76.816C53.8524 76.816 52.7791 76.564 51.8458 76.06C50.9124 75.5373 50.1751 74.7813 49.6338 73.792C49.1111 72.784 48.8498 71.5893 48.8498 70.208V61.108H52.7698V69.648C52.7698 70.88 53.0778 71.832 53.6938 72.504C54.3098 73.1573 55.1498 73.484 56.2138 73.484C57.2964 73.484 58.1458 73.1573 58.7618 72.504C59.3778 71.832 59.6858 70.88 59.6858 69.648V61.108H63.6338Z" fill="white"/>
<path d="M42.6983 64.328V71.832C42.6983 72.3547 42.8196 72.7373 43.0623 72.98C43.3236 73.204 43.753 73.316 44.3503 73.316H46.1703V76.62H43.7063C40.4023 76.62 38.7503 75.0147 38.7503 71.804V64.328H36.9023V61.108H38.7503V57.272H42.6983V61.108H46.1703V64.328H42.6983Z" fill="white"/>
</svg>
